<svg width="21" height="21" viewBox="0 0 21 21" fill="none" xmlns="http://www.w3.org/2000/svg">
<path d="M8.24095 6.36706C9.24961 4.86894 9.8468 3.48519 10.1579 2.50644C10.2773 2.13144 10.7813 1.97831 11.0805 2.24706C15.591 6.29769 17.0655 9.39081 17.3589 12.9646C17.5741 16.4214 15.7905 19.4977 11.0018 19.4977C6.50648 19.4977 3.18783 16.5096 3.63867 11.7727C3.90905 8.94269 5.0647 6.78581 5.98805 5.50206C6.27548 5.10269 6.87464 5.09706 7.20605 5.46456L8.03226 6.38081C8.08936 6.44394 8.1937 6.43706 8.24095 6.36706Z" fill="url(#paint0_radial_367_21800)"/>
<path d="M8.24095 6.36706C9.24961 4.86894 9.8468 3.48519 10.1579 2.50644C10.2773 2.13144 10.7813 1.97831 11.0805 2.24706C15.591 6.29769 17.0655 9.39081 17.3589 12.9646C17.5741 16.4214 15.7905 19.4977 11.0018 19.4977C6.50648 19.4977 3.18783 16.5096 3.63867 11.7727C3.90905 8.94269 5.0647 6.78581 5.98805 5.50206C6.27548 5.10269 6.87464 5.09706 7.20605 5.46456L8.03226 6.38081C8.08936 6.44394 8.1937 6.43706 8.24095 6.36706Z" fill="url(#paint1_radial_367_21800)"/>
<path d="M8.24095 6.36706C9.24961 4.86894 9.8468 3.48519 10.1579 2.50644C10.2773 2.13144 10.7813 1.97831 11.0805 2.24706C15.591 6.29769 17.0655 9.39081 17.3589 12.9646C17.5741 16.4214 15.7905 19.4977 11.0018 19.4977C6.50648 19.4977 3.18783 16.5096 3.63867 11.7727C3.90905 8.94269 5.0647 6.78581 5.98805 5.50206C6.27548 5.10269 6.87464 5.09706 7.20605 5.46456L8.03226 6.38081C8.08936 6.44394 8.1937 6.43706 8.24095 6.36706Z" fill="url(#paint2_linear_367_21800)"/>
<path d="M8.24095 6.36706C9.24961 4.86894 9.8468 3.48519 10.1579 2.50644C10.2773 2.13144 10.7813 1.97831 11.0805 2.24706C15.591 6.29769 17.0655 9.39081 17.3589 12.9646C17.5741 16.4214 15.7905 19.4977 11.0018 19.4977C6.50648 19.4977 3.18783 16.5096 3.63867 11.7727C3.90905 8.94269 5.0647 6.78581 5.98805 5.50206C6.27548 5.10269 6.87464 5.09706 7.20605 5.46456L8.03226 6.38081C8.08936 6.44394 8.1937 6.43706 8.24095 6.36706Z" fill="url(#paint3_radial_367_21800)"/>
<path d="M8.24095 6.36706C9.24961 4.86894 9.8468 3.48519 10.1579 2.50644C10.2773 2.13144 10.7813 1.97831 11.0805 2.24706C15.591 6.29769 17.0655 9.39081 17.3589 12.9646C17.5741 16.4214 15.7905 19.4977 11.0018 19.4977C6.50648 19.4977 3.18783 16.5096 3.63867 11.7727C3.90905 8.94269 5.0647 6.78581 5.98805 5.50206C6.27548 5.10269 6.87464 5.09706 7.20605 5.46456L8.03226 6.38081C8.08936 6.44394 8.1937 6.43706 8.24095 6.36706Z" fill="url(#paint4_radial_367_21800)"/>
<path d="M8.24095 6.36706C9.24961 4.86894 9.8468 3.48519 10.1579 2.50644C10.2773 2.13144 10.7813 1.97831 11.0805 2.24706C15.591 6.29769 17.0655 9.39081 17.3589 12.9646C17.5741 16.4214 15.7905 19.4977 11.0018 19.4977C6.50648 19.4977 3.18783 16.5096 3.63867 11.7727C3.90905 8.94269 5.0647 6.78581 5.98805 5.50206C6.27548 5.10269 6.87464 5.09706 7.20605 5.46456L8.03226 6.38081C8.08936 6.44394 8.1937 6.43706 8.24095 6.36706Z" fill="url(#paint5_radial_367_21800)"/>
<path d="M8.24095 6.36706C9.24961 4.86894 9.8468 3.48519 10.1579 2.50644C10.2773 2.13144 10.7813 1.97831 11.0805 2.24706C15.591 6.29769 17.0655 9.39081 17.3589 12.9646C17.5741 16.4214 15.7905 19.4977 11.0018 19.4977C6.50648 19.4977 3.18783 16.5096 3.63867 11.7727C3.90905 8.94269 5.0647 6.78581 5.98805 5.50206C6.27548 5.10269 6.87464 5.09706 7.20605 5.46456L8.03226 6.38081C8.08936 6.44394 8.1937 6.43706 8.24095 6.36706Z" fill="url(#paint6_radial_367_21800)"/>
<path d="M8.24095 6.36706C9.24961 4.86894 9.8468 3.48519 10.1579 2.50644C10.2773 2.13144 10.7813 1.97831 11.0805 2.24706C15.591 6.29769 17.0655 9.39081 17.3589 12.9646C17.5741 16.4214 15.7905 19.4977 11.0018 19.4977C6.50648 19.4977 3.18783 16.5096 3.63867 11.7727C3.90905 8.94269 5.0647 6.78581 5.98805 5.50206C6.27548 5.10269 6.87464 5.09706 7.20605 5.46456L8.03226 6.38081C8.08936 6.44394 8.1937 6.43706 8.24095 6.36706Z" fill="url(#paint7_radial_367_21800)"/>
<g filter="url(#filter0_d_367_21800)">
<path d="M6.6811 13.206C7.53554 11.2685 9.28969 9.12536 10.4742 7.96224C10.6349 7.80573 10.8536 7.71555 11.0834 7.71111C11.3131 7.70667 11.5355 7.78832 11.7027 7.93849C13.974 9.93161 14.6578 11.7335 15.2379 13.831C15.8417 16.0135 15.2379 19.5297 10.696 19.5297C6.78479 19.5297 5.42897 16.0435 6.6811 13.206Z" fill="url(#paint8_radial_367_21800)"/>
<path d="M6.6811 13.206C7.53554 11.2685 9.28969 9.12536 10.4742 7.96224C10.6349 7.80573 10.8536 7.71555 11.0834 7.71111C11.3131 7.70667 11.5355 7.78832 11.7027 7.93849C13.974 9.93161 14.6578 11.7335 15.2379 13.831C15.8417 16.0135 15.2379 19.5297 10.696 19.5297C6.78479 19.5297 5.42897 16.0435 6.6811 13.206Z" fill="url(#paint9_radial_367_21800)"/>
<path d="M6.6811 13.206C7.53554 11.2685 9.28969 9.12536 10.4742 7.96224C10.6349 7.80573 10.8536 7.71555 11.0834 7.71111C11.3131 7.70667 11.5355 7.78832 11.7027 7.93849C13.974 9.93161 14.6578 11.7335 15.2379 13.831C15.8417 16.0135 15.2379 19.5297 10.696 19.5297C6.78479 19.5297 5.42897 16.0435 6.6811 13.206Z" fill="url(#paint10_radial_367_21800)"/>
</g>
<path d="M6.6811 13.206C7.53554 11.2685 9.28969 9.12536 10.4742 7.96224C10.6349 7.80573 10.8536 7.71555 11.0834 7.71111C11.3131 7.70667 11.5355 7.78832 11.7027 7.93849C13.974 9.93161 14.6578 11.7335 15.2379 13.831C15.8417 16.0135 15.2379 19.5297 10.696 19.5297C6.78479 19.5297 5.42897 16.0435 6.6811 13.206Z" fill="url(#paint11_linear_367_21800)"/>
<path d="M6.6811 13.206C7.53554 11.2685 9.28969 9.12536 10.4742 7.96224C10.6349 7.80573 10.8536 7.71555 11.0834 7.71111C11.3131 7.70667 11.5355 7.78832 11.7027 7.93849C13.974 9.93161 14.6578 11.7335 15.2379 13.831C15.8417 16.0135 15.2379 19.5297 10.696 19.5297C6.78479 19.5297 5.42897 16.0435 6.6811 13.206Z" fill="url(#paint12_radial_367_21800)"/>
<g filter="url(#filter1_f_367_21800)">
<path d="M7.75496 7.99383C9.27418 5.87508 10.1634 3.58258 10.4344 3.01758C10.0387 5.91383 8.88567 8.03508 6.7148 10.7663C4.97836 12.9513 4.66467 14.8213 4.67977 15.277C4.13705 11.8007 5.85511 10.642 7.75496 7.99383Z" fill="url(#paint13_linear_367_21800)"/>
</g>
<g filter="url(#filter2_f_367_21800)">
<path d="M6.44223 5.70312C5.58911 6.71188 3.8927 9.50938 3.93536 12.6306C4.77536 9.42937 6.74083 8.42063 6.44223 5.70312Z" fill="url(#paint14_linear_367_21800)"/>
</g>
<defs>
<filter id="filter0_d_367_21800" x="6.22949" y="7.2708" width="10.0844" height="12.6986" filterUnits="userSpaceOnUse" color-interpolation-filters="sRGB">
<feFlood flood-opacity="0" result="BackgroundImageFix"/>
<feColorMatrix in="SourceAlpha" type="matrix" values="0 0 0 0 0 0 0 0 0 0 0 0 0 0 0 0 0 0 127 0" result="hardAlpha"/>
<feOffset dx="0.440133"/>
<feGaussianBlur stdDeviation="0.220067"/>
<feComposite in2="hardAlpha" operator="out"/>
<feColorMatrix type="matrix" values="0 0 0 0 0.952941 0 0 0 0 0.615686 0 0 0 0 0.364706 0 0 0 1 0"/>
<feBlend mode="normal" in2="BackgroundImageFix" result="effect1_dropShadow_367_21800"/>
<feBlend mode="normal" in="SourceGraphic" in2="effect1_dropShadow_367_21800" result="shape"/>
</filter>
<filter id="filter1_f_367_21800" x="3.47779" y="1.91725" width="8.05711" height="14.4604" filterUnits="userSpaceOnUse" color-interpolation-filters="sRGB">
<feFlood flood-opacity="0" result="BackgroundImageFix"/>
<feBlend mode="normal" in="SourceGraphic" in2="BackgroundImageFix" result="shape"/>
<feGaussianBlur stdDeviation="0.550166" result="effect1_foregroundBlur_367_21800"/>
</filter>
<filter id="filter2_f_367_21800" x="2.61417" y="4.38273" width="5.17888" height="9.56853" filterUnits="userSpaceOnUse" color-interpolation-filters="sRGB">
<feFlood flood-opacity="0" result="BackgroundImageFix"/>
<feBlend mode="normal" in="SourceGraphic" in2="BackgroundImageFix" result="shape"/>
<feGaussianBlur stdDeviation="0.6602" result="effect1_foregroundBlur_367_21800"/>
</filter>
<radialGradient id="paint0_radial_367_21800" cx="0" cy="0" r="1" gradientUnits="userSpaceOnUse" gradientTransform="translate(15.7527 13.1078) rotate(-179.499) scale(11.221 16.1164)">
<stop stop-color="#FF953D"/>
<stop offset="1" stop-color="#FF5141"/>
</radialGradient>
<radialGradient id="paint1_radial_367_21800" cx="0" cy="0" r="1" gradientUnits="userSpaceOnUse" gradientTransform="translate(6.8085 10.5665) rotate(-158.893) scale(6.74364 11.2298)">
<stop stop-color="#CE5327"/>
<stop offset="1" stop-color="#CE5327" stop-opacity="0"/>
</radialGradient>
<linearGradient id="paint2_linear_367_21800" x1="12.0347" y1="19.4977" x2="12.0347" y2="16.3114" gradientUnits="userSpaceOnUse">
<stop stop-color="#FF7583"/>
<stop offset="1" stop-color="#FF7583" stop-opacity="0"/>
</linearGradient>
<radialGradient id="paint3_radial_367_21800" cx="0" cy="0" r="1" gradientUnits="userSpaceOnUse" gradientTransform="translate(3.25512 9.77743) rotate(22.9928) scale(2.02168 16.1871)">
<stop stop-color="#FFAA7B"/>
<stop offset="1" stop-color="#FFAA7B" stop-opacity="0"/>
</radialGradient>
<radialGradient id="paint4_radial_367_21800" cx="0" cy="0" r="1" gradientUnits="userSpaceOnUse" gradientTransform="translate(6.11142 4.68894) rotate(76.7076) scale(2.40614 3.13693)">
<stop stop-color="#FF5E47"/>
<stop offset="1" stop-color="#FF5E47" stop-opacity="0"/>
</radialGradient>
<radialGradient id="paint5_radial_367_21800" cx="0" cy="0" r="1" gradientUnits="userSpaceOnUse" gradientTransform="translate(10.7833 1.63644) rotate(87.7761) scale(6.33632 6.1573)">
<stop stop-color="#FF2F3C"/>
<stop offset="1" stop-color="#FF2F3C" stop-opacity="0"/>
</radialGradient>
<radialGradient id="paint6_radial_367_21800" cx="0" cy="0" r="1" gradientUnits="userSpaceOnUse" gradientTransform="translate(9.12361 3.78269) rotate(24.2642) scale(1.49579 2.9083)">
<stop stop-color="#FF846C"/>
<stop offset="1" stop-color="#FF846C" stop-opacity="0"/>
</radialGradient>
<radialGradient id="paint7_radial_367_21800" cx="0" cy="0" r="1" gradientUnits="userSpaceOnUse" gradientTransform="translate(8.1773 5.91394) rotate(114.254) scale(1.43528 0.339934)">
<stop stop-color="#FFA682"/>
<stop offset="1" stop-color="#FFA682" stop-opacity="0"/>
</radialGradient>
<radialGradient id="paint8_radial_367_21800" cx="0" cy="0" r="1" gradientUnits="userSpaceOnUse" gradientTransform="translate(13.9168 16.018) rotate(-169.089) scale(6.56955 7.82001)">
<stop stop-color="#FFDA2F"/>
<stop offset="1" stop-color="#FF8E41"/>
</radialGradient>
<radialGradient id="paint9_radial_367_21800" cx="0" cy="0" r="1" gradientUnits="userSpaceOnUse" gradientTransform="translate(8.13929 6.15286) rotate(68.0933) scale(8.89682 8.01158)">
<stop stop-color="#FD5639"/>
<stop offset="1" stop-color="#FE5533" stop-opacity="0"/>
</radialGradient>
<radialGradient id="paint10_radial_367_21800" cx="0" cy="0" r="1" gradientUnits="userSpaceOnUse" gradientTransform="translate(12.6274 13.676) rotate(174.512) scale(6.42736 15.0017)">
<stop offset="0.628" stop-color="#D7812D" stop-opacity="0"/>
<stop offset="1" stop-color="#D7812D"/>
</radialGradient>
<linearGradient id="paint11_linear_367_21800" x1="10.8319" y1="7.41536" x2="10.8319" y2="9.69474" gradientUnits="userSpaceOnUse">
<stop stop-color="#F95131"/>
<stop offset="1" stop-color="#F95131" stop-opacity="0"/>
</linearGradient>
<radialGradient id="paint12_radial_367_21800" cx="0" cy="0" r="1" gradientUnits="userSpaceOnUse" gradientTransform="translate(15.0863 12.5348) rotate(144.396) scale(10.3575 7.38592)">
<stop offset="0.772" stop-color="#F18A52" stop-opacity="0"/>
<stop offset="1" stop-color="#F18A52"/>
</radialGradient>
<linearGradient id="paint13_linear_367_21800" x1="9.84314" y1="3.44133" x2="5.41741" y2="15.1377" gradientUnits="userSpaceOnUse">
<stop stop-color="#FF7558"/>
<stop offset="1" stop-color="#F38758"/>
</linearGradient>
<linearGradient id="paint14_linear_367_21800" x1="6.26308" y1="5.87187" x2="3.88247" y2="13.0286" gradientUnits="userSpaceOnUse">
<stop stop-color="#FF815B"/>
<stop offset="1" stop-color="#FF9C6D"/>
</linearGradient>
</defs>
</svg>
