<svg width="52" height="52" viewBox="0 0 52 52" fill="none" xmlns="http://www.w3.org/2000/svg">
<g filter="url(#filter0_d_408_4071)">
<circle cx="26" cy="26" r="20" fill="white"/>
</g>
<path d="M22.7535 15.7009C22.7469 15.3212 22.816 14.9439 22.9567 14.5912C23.0974 14.2385 23.307 13.9173 23.5732 13.6464C23.8394 13.3755 24.1569 13.1604 24.5071 13.0135C24.8573 12.8667 25.2333 12.791 25.6131 12.791C25.9928 12.791 26.3688 12.8667 26.7191 13.0135C27.0693 13.1604 27.3868 13.3755 27.6529 13.6464C27.9191 13.9173 28.1287 14.2385 28.2694 14.5912C28.4102 14.9439 28.4793 15.3212 28.4726 15.7009V18.9922C28.4726 19.2722 28.4526 19.5522 28.4092 19.8322C28.3925 19.9338 28.3789 20.0359 28.3683 20.1383C28.337 20.46 28.3752 20.8809 28.5944 21.1644L28.0709 21.6687C29.4031 22.3511 30.5207 23.3883 31.3004 24.666C32.0801 25.9436 32.4915 27.4119 32.4892 28.9087C32.4901 29.7419 32.3635 30.5704 32.1135 31.3652L31.2465 37.0235H24.2022V37.0209C19.8518 36.927 16.3613 34.0904 16.3613 28.9078C16.3613 25.8626 17.8196 23.4104 20.0257 22.0278L20.0205 22.0235C20.1709 21.9191 20.3483 21.8122 20.5378 21.6983H20.5396C21.1657 21.3226 21.9309 20.8635 22.3335 20.1139C22.6839 19.4644 22.7509 18.4096 22.7509 17.92H22.7535V15.7009Z" fill="url(#paint0_linear_408_4071)"/>
<path d="M22.7545 15.7009C22.7479 15.3212 22.8169 14.9439 22.9577 14.5912C23.0984 14.2385 23.308 13.9173 23.5742 13.6464C23.8404 13.3755 24.1578 13.1604 24.5081 13.0135C24.8583 12.8667 25.2343 12.791 25.614 12.791C25.9938 12.791 26.3698 12.8667 26.72 13.0135C27.0703 13.1604 27.3877 13.3755 27.6539 13.6464C27.9201 13.9173 28.1297 14.2385 28.2704 14.5912C28.4112 14.9439 28.4802 15.3212 28.4736 15.7009V18.9922C28.4736 19.2722 28.4536 19.5522 28.4101 19.8322C28.3935 19.9338 28.3799 20.0359 28.3693 20.1383C28.338 20.46 28.3762 20.8809 28.5953 21.1644L28.0719 21.6687C29.4041 22.3511 30.5217 23.3883 31.3014 24.666C32.0811 25.9436 32.4925 27.4119 32.4901 28.9087C32.4911 29.7419 32.3644 30.5704 32.1145 31.3652L31.2475 37.0235H24.2032V37.0209C19.8527 36.927 16.3623 34.0904 16.3623 28.9078C16.3623 25.8626 17.8206 23.4104 20.0267 22.0278L20.0214 22.0235C20.1719 21.9191 20.3493 21.8122 20.5388 21.6983H20.5406C21.1667 21.3226 21.9319 20.8635 22.3345 20.1139C22.6849 19.4644 22.7519 18.4096 22.7519 17.92H22.7545V15.7009Z" fill="url(#paint1_radial_408_4071)"/>
<path d="M22.7545 15.7009C22.7479 15.3212 22.8169 14.9439 22.9577 14.5912C23.0984 14.2385 23.308 13.9173 23.5742 13.6464C23.8404 13.3755 24.1578 13.1604 24.5081 13.0135C24.8583 12.8667 25.2343 12.791 25.614 12.791C25.9938 12.791 26.3698 12.8667 26.72 13.0135C27.0703 13.1604 27.3877 13.3755 27.6539 13.6464C27.9201 13.9173 28.1297 14.2385 28.2704 14.5912C28.4112 14.9439 28.4802 15.3212 28.4736 15.7009V18.9922C28.4736 19.2722 28.4536 19.5522 28.4101 19.8322C28.3935 19.9338 28.3799 20.0359 28.3693 20.1383C28.338 20.46 28.3762 20.8809 28.5953 21.1644L28.0719 21.6687C29.4041 22.3511 30.5217 23.3883 31.3014 24.666C32.0811 25.9436 32.4925 27.4119 32.4901 28.9087C32.4911 29.7419 32.3644 30.5704 32.1145 31.3652L31.2475 37.0235H24.2032V37.0209C19.8527 36.927 16.3623 34.0904 16.3623 28.9078C16.3623 25.8626 17.8206 23.4104 20.0267 22.0278L20.0214 22.0235C20.1719 21.9191 20.3493 21.8122 20.5388 21.6983H20.5406C21.1667 21.3226 21.9319 20.8635 22.3345 20.1139C22.6849 19.4644 22.7519 18.4096 22.7519 17.92H22.7545V15.7009Z" fill="url(#paint2_radial_408_4071)"/>
<path d="M22.7545 15.7009C22.7479 15.3212 22.8169 14.9439 22.9577 14.5912C23.0984 14.2385 23.308 13.9173 23.5742 13.6464C23.8404 13.3755 24.1578 13.1604 24.5081 13.0135C24.8583 12.8667 25.2343 12.791 25.614 12.791C25.9938 12.791 26.3698 12.8667 26.72 13.0135C27.0703 13.1604 27.3877 13.3755 27.6539 13.6464C27.9201 13.9173 28.1297 14.2385 28.2704 14.5912C28.4112 14.9439 28.4802 15.3212 28.4736 15.7009V18.9922C28.4736 19.2722 28.4536 19.5522 28.4101 19.8322C28.3935 19.9338 28.3799 20.0359 28.3693 20.1383C28.338 20.46 28.3762 20.8809 28.5953 21.1644L28.0719 21.6687C29.4041 22.3511 30.5217 23.3883 31.3014 24.666C32.0811 25.9436 32.4925 27.4119 32.4901 28.9087C32.4911 29.7419 32.3644 30.5704 32.1145 31.3652L31.2475 37.0235H24.2032V37.0209C19.8527 36.927 16.3623 34.0904 16.3623 28.9078C16.3623 25.8626 17.8206 23.4104 20.0267 22.0278L20.0214 22.0235C20.1719 21.9191 20.3493 21.8122 20.5388 21.6983H20.5406C21.1667 21.3226 21.9319 20.8635 22.3345 20.1139C22.6849 19.4644 22.7519 18.4096 22.7519 17.92H22.7545V15.7009Z" fill="url(#paint3_radial_408_4071)"/>
<path d="M22.7545 15.7009C22.7479 15.3212 22.8169 14.9439 22.9577 14.5912C23.0984 14.2385 23.308 13.9173 23.5742 13.6464C23.8404 13.3755 24.1578 13.1604 24.5081 13.0135C24.8583 12.8667 25.2343 12.791 25.614 12.791C25.9938 12.791 26.3698 12.8667 26.72 13.0135C27.0703 13.1604 27.3877 13.3755 27.6539 13.6464C27.9201 13.9173 28.1297 14.2385 28.2704 14.5912C28.4112 14.9439 28.4802 15.3212 28.4736 15.7009V18.9922C28.4736 19.2722 28.4536 19.5522 28.4101 19.8322C28.3935 19.9338 28.3799 20.0359 28.3693 20.1383C28.338 20.46 28.3762 20.8809 28.5953 21.1644L28.0719 21.6687C29.4041 22.3511 30.5217 23.3883 31.3014 24.666C32.0811 25.9436 32.4925 27.4119 32.4901 28.9087C32.4911 29.7419 32.3644 30.5704 32.1145 31.3652L31.2475 37.0235H24.2032V37.0209C19.8527 36.927 16.3623 34.0904 16.3623 28.9078C16.3623 25.8626 17.8206 23.4104 20.0267 22.0278L20.0214 22.0235C20.1719 21.9191 20.3493 21.8122 20.5388 21.6983H20.5406C21.1667 21.3226 21.9319 20.8635 22.3345 20.1139C22.6849 19.4644 22.7519 18.4096 22.7519 17.92H22.7545V15.7009Z" fill="url(#paint4_linear_408_4071)"/>
<g filter="url(#filter1_f_408_4071)">
<path d="M32.675 24.0062C32.675 23.4177 32.4412 22.8532 32.0251 22.4371C31.6089 22.0209 31.0444 21.7871 30.4559 21.7871H27.9985C27.5429 21.7871 27.0982 21.9274 26.7251 22.1888C26.3519 22.4503 26.0683 22.8203 25.9127 23.2485C25.7571 23.6768 25.7371 24.1426 25.8555 24.5826C25.9738 25.0226 26.2247 25.4155 26.5742 25.708C26.3078 25.9086 26.09 26.1666 25.9368 26.4629C25.7837 26.7591 25.6991 27.086 25.6894 27.4194C25.6797 27.7527 25.7452 28.084 25.8808 28.3886C26.0165 28.6933 26.219 28.9635 26.4733 29.1793C26.2274 29.3875 26.0298 29.6468 25.8945 29.9393C25.7592 30.2317 25.6893 30.5501 25.6898 30.8723V30.981C25.6898 31.5897 25.9333 32.1402 26.3298 32.541C26.0256 32.842 25.8177 33.2267 25.7325 33.6461C25.6473 34.0655 25.6887 34.5008 25.8514 34.8966C26.0141 35.2925 26.2908 35.631 26.6463 35.8693C27.0018 36.1076 27.4201 36.2349 27.8481 36.2349H30.2863C30.6658 36.2352 31.0386 36.1355 31.3672 35.9458C31.6958 35.7561 31.9686 35.4832 32.1582 35.1545C32.3477 34.8258 32.4473 34.453 32.4469 34.0735C32.4465 33.6941 32.3461 33.3215 32.1559 32.9932C32.5386 32.8144 32.8624 32.5301 33.0892 32.1737C33.3159 31.8172 33.4362 31.4035 33.4359 30.981V30.8723C33.4359 30.1854 33.1246 29.5715 32.6342 29.1645C32.9137 28.9216 33.1282 28.6128 33.2583 28.2661C33.3884 27.9194 33.43 27.5457 33.3793 27.1789C33.3286 26.8121 33.1873 26.4637 32.968 26.1653C32.7488 25.8668 32.4586 25.6278 32.1237 25.4697C32.4798 25.0655 32.6759 24.545 32.675 24.0062Z" fill="url(#paint5_linear_408_4071)"/>
</g>
<path d="M32.1268 25.6077C33.5243 25.6077 34.6572 24.4748 34.6572 23.0773C34.6572 21.6798 33.5243 20.5469 32.1268 20.5469H29.3242C27.9267 20.5469 26.7937 21.6798 26.7937 23.0773C26.7937 24.4748 27.9267 25.6077 29.3242 25.6077H32.1268Z" fill="url(#paint6_linear_408_4071)"/>
<path d="M32.1268 25.6077C33.5243 25.6077 34.6572 24.4748 34.6572 23.0773C34.6572 21.6798 33.5243 20.5469 32.1268 20.5469H29.3242C27.9267 20.5469 26.7937 21.6798 26.7937 23.0773C26.7937 24.4748 27.9267 25.6077 29.3242 25.6077H32.1268Z" fill="url(#paint7_radial_408_4071)"/>
<path d="M31.9339 37.0248C33.2939 37.0248 34.3965 35.9223 34.3965 34.5622C34.3965 33.2022 33.2939 32.0996 31.9339 32.0996H29.1539C27.7938 32.0996 26.6913 33.2022 26.6913 34.5622C26.6913 35.9223 27.7938 37.0248 29.1539 37.0248H31.9339Z" fill="url(#paint8_linear_408_4071)"/>
<path d="M31.9339 37.0248C33.2939 37.0248 34.3965 35.9223 34.3965 34.5622C34.3965 33.2022 33.2939 32.0996 31.9339 32.0996H29.1539C27.7938 32.0996 26.6913 33.2022 26.6913 34.5622C26.6913 35.9223 27.7938 37.0248 29.1539 37.0248H31.9339Z" fill="url(#paint9_radial_408_4071)"/>
<path d="M31.9339 37.0248C33.2939 37.0248 34.3965 35.9223 34.3965 34.5622C34.3965 33.2022 33.2939 32.0996 31.9339 32.0996H29.1539C27.7938 32.0996 26.6913 33.2022 26.6913 34.5622C26.6913 35.9223 27.7938 37.0248 29.1539 37.0248H31.9339Z" fill="url(#paint10_radial_408_4071)"/>
<path d="M31.9358 37.0248C33.2959 37.0248 34.3984 35.9223 34.3984 34.5622C34.3984 33.2022 33.2959 32.0996 31.9358 32.0996H29.1558C27.7958 32.0996 26.6932 33.2022 26.6932 34.5622C26.6932 35.9223 27.7958 37.0248 29.1558 37.0248H31.9358Z" fill="url(#paint11_linear_408_4071)"/>
<path d="M31.9358 37.0248C33.2959 37.0248 34.3984 35.9223 34.3984 34.5622C34.3984 33.2022 33.2959 32.0996 31.9358 32.0996H29.1558C27.7958 32.0996 26.6932 33.2022 26.6932 34.5622C26.6932 35.9223 27.7958 37.0248 29.1558 37.0248H31.9358Z" fill="url(#paint12_radial_408_4071)"/>
<g filter="url(#filter2_f_408_4071)">
<path d="M33.1792 33.5625H29.7931C29.4387 33.5625 29.1514 33.8498 29.1514 34.2042C29.1514 34.5587 29.4387 34.846 29.7931 34.846H33.1792C33.5336 34.846 33.8209 34.5587 33.8209 34.2042C33.8209 33.8498 33.5336 33.5625 33.1792 33.5625Z" fill="url(#paint13_linear_408_4071)"/>
</g>
<path d="M32.9333 33.563C34.3654 33.563 35.5264 32.4021 35.5264 30.97C35.5264 29.5379 34.3654 28.377 32.9333 28.377H29.2855C27.8534 28.377 26.6925 29.5379 26.6925 30.97C26.6925 32.4021 27.8534 33.563 29.2855 33.563H32.9333Z" fill="#C4C4C4" fill-opacity="0.66"/>
<path d="M35.5264 31.0326V30.9074C35.5264 29.5099 34.3935 28.377 32.9959 28.377H29.2229C27.8254 28.377 26.6925 29.5099 26.6925 30.9074V31.0326C26.6925 32.4301 27.8254 33.563 29.2229 33.563H32.9959C34.3935 33.563 35.5264 32.4301 35.5264 31.0326Z" fill="url(#paint14_linear_408_4071)"/>
<path d="M35.5264 31.0326V30.9074C35.5264 29.5099 34.3935 28.377 32.9959 28.377H29.2229C27.8254 28.377 26.6925 29.5099 26.6925 30.9074V31.0326C26.6925 32.4301 27.8254 33.563 29.2229 33.563H32.9959C34.3935 33.563 35.5264 32.4301 35.5264 31.0326Z" fill="url(#paint15_radial_408_4071)"/>
<path d="M35.5264 31.0326V30.9074C35.5264 29.5099 34.3935 28.377 32.9959 28.377H29.2229C27.8254 28.377 26.6925 29.5099 26.6925 30.9074V31.0326C26.6925 32.4301 27.8254 33.563 29.2229 33.563H32.9959C34.3935 33.563 35.5264 32.4301 35.5264 31.0326Z" fill="url(#paint16_radial_408_4071)"/>
<g filter="url(#filter3_f_408_4071)">
<path d="M34.0176 30.1973H29.4533C29.0988 30.1973 28.8115 30.4846 28.8115 30.839C28.8115 31.1934 29.0988 31.4807 29.4533 31.4807H34.0176C34.372 31.4807 34.6594 31.1934 34.6594 30.839C34.6594 30.4846 34.372 30.1973 34.0176 30.1973Z" fill="url(#paint17_linear_408_4071)"/>
</g>
<path d="M35.4902 27.0476V27.0363C35.4902 25.6388 34.3573 24.5059 32.9598 24.5059H29.2259C27.8284 24.5059 26.6955 25.6388 26.6955 27.0363V27.0476C26.6955 28.4451 27.8284 29.578 29.2259 29.578H32.9598C34.3573 29.578 35.4902 28.4451 35.4902 27.0476Z" fill="url(#paint18_linear_408_4071)"/>
<path d="M35.4902 27.0476V27.0363C35.4902 25.6388 34.3573 24.5059 32.9598 24.5059H29.2259C27.8284 24.5059 26.6955 25.6388 26.6955 27.0363V27.0476C26.6955 28.4451 27.8284 29.578 29.2259 29.578H32.9598C34.3573 29.578 35.4902 28.4451 35.4902 27.0476Z" fill="url(#paint19_radial_408_4071)"/>
<path d="M25.6156 12.8418C24.8574 12.842 24.1303 13.1433 23.5942 13.6795C23.058 14.2156 22.7567 14.9427 22.7565 15.7009V17.9209L22.7547 17.9201C22.7547 18.4088 22.6869 19.4644 22.3374 20.114C21.933 20.8644 21.1687 21.3227 20.5426 21.6974C20.3513 21.8122 20.1739 21.9183 20.0234 22.0227C20.8887 22.7157 22.66 24.1009 22.7034 24.0679C23.7104 23.5233 24.7202 22.9841 25.733 22.4505L25.6913 21.8505C26.4363 21.8308 27.1442 21.521 27.6643 20.9872C28.1843 20.4533 28.4754 19.7375 28.4756 18.9922V15.7009C28.4754 14.9426 28.174 14.2153 27.6376 13.6792C27.1013 13.143 26.374 12.8418 25.6156 12.8418Z" fill="url(#paint20_radial_408_4071)"/>
<path d="M25.6156 12.8418C24.8574 12.842 24.1303 13.1433 23.5942 13.6795C23.058 14.2156 22.7567 14.9427 22.7565 15.7009V17.9209L22.7547 17.9201C22.7547 18.4088 22.6869 19.4644 22.3374 20.114C21.933 20.8644 21.1687 21.3227 20.5426 21.6974C20.3513 21.8122 20.1739 21.9183 20.0234 22.0227C20.8887 22.7157 22.66 24.1009 22.7034 24.0679C23.7104 23.5233 24.7202 22.9841 25.733 22.4505L25.6913 21.8505C26.4363 21.8308 27.1442 21.521 27.6643 20.9872C28.1843 20.4533 28.4754 19.7375 28.4756 18.9922V15.7009C28.4754 14.9426 28.174 14.2153 27.6376 13.6792C27.1013 13.143 26.374 12.8418 25.6156 12.8418Z" fill="url(#paint21_radial_408_4071)"/>
<g filter="url(#filter4_f_408_4071)">
<path d="M32.7271 21.2383H29.5793C28.9751 21.2383 28.4854 21.728 28.4854 22.3322C28.4854 22.9363 28.9751 23.4261 29.5793 23.4261H32.7271C33.3312 23.4261 33.821 22.9363 33.821 22.3322C33.821 21.728 33.3312 21.2383 32.7271 21.2383Z" fill="url(#paint22_linear_408_4071)"/>
</g>
<g filter="url(#filter5_f_408_4071)">
<path d="M33.5635 25.1289H29.5148C28.9107 25.1289 28.4209 25.6187 28.4209 26.2228C28.4209 26.827 28.9107 27.3167 29.5148 27.3167H33.5635C34.1677 27.3167 34.6574 26.827 34.6574 26.2228C34.6574 25.6187 34.1677 25.1289 33.5635 25.1289Z" fill="url(#paint23_linear_408_4071)"/>
</g>
<g filter="url(#filter6_f_408_4071)">
<path d="M27.7481 15.168C27.7481 14.4798 27.1904 13.9219 26.5025 13.9219C25.8145 13.9219 25.2568 14.4798 25.2568 15.168V19.6297C25.2568 20.3179 25.8145 20.8758 26.5025 20.8758C27.1904 20.8758 27.7481 20.3179 27.7481 19.6297V15.168Z" fill="url(#paint24_linear_408_4071)"/>
</g>
<defs>
<filter id="filter0_d_408_4071" x="0.842668" y="0.842668" width="50.3147" height="50.3147" filterUnits="userSpaceOnUse" color-interpolation-filters="sRGB">
<feFlood flood-opacity="0" result="BackgroundImageFix"/>
<feColorMatrix in="SourceAlpha" type="matrix" values="0 0 0 0 0 0 0 0 0 0 0 0 0 0 0 0 0 0 127 0" result="hardAlpha"/>
<feOffset/>
<feGaussianBlur stdDeviation="2.57867"/>
<feComposite in2="hardAlpha" operator="out"/>
<feColorMatrix type="matrix" values="0 0 0 0 0.952941 0 0 0 0 0.321569 0 0 0 0 0.188235 0 0 0 0.21 0"/>
<feBlend mode="normal" in2="BackgroundImageFix" result="effect1_dropShadow_408_4071"/>
<feBlend mode="normal" in="SourceGraphic" in2="effect1_dropShadow_408_4071" result="shape"/>
</filter>
<filter id="filter1_f_408_4071" x="24.3991" y="20.4978" width="10.3257" height="17.0259" filterUnits="userSpaceOnUse" color-interpolation-filters="sRGB">
<feFlood flood-opacity="0" result="BackgroundImageFix"/>
<feBlend mode="normal" in="SourceGraphic" in2="BackgroundImageFix" result="shape"/>
<feGaussianBlur stdDeviation="0.644666" result="effect1_foregroundBlur_408_4071"/>
</filter>
<filter id="filter2_f_408_4071" x="28.3455" y="32.7567" width="6.28159" height="2.89487" filterUnits="userSpaceOnUse" color-interpolation-filters="sRGB">
<feFlood flood-opacity="0" result="BackgroundImageFix"/>
<feBlend mode="normal" in="SourceGraphic" in2="BackgroundImageFix" result="shape"/>
<feGaussianBlur stdDeviation="0.402917" result="effect1_foregroundBlur_408_4071"/>
</filter>
<filter id="filter3_f_408_4071" x="28.0057" y="29.3914" width="7.45932" height="2.89487" filterUnits="userSpaceOnUse" color-interpolation-filters="sRGB">
<feFlood flood-opacity="0" result="BackgroundImageFix"/>
<feBlend mode="normal" in="SourceGraphic" in2="BackgroundImageFix" result="shape"/>
<feGaussianBlur stdDeviation="0.402917" result="effect1_foregroundBlur_408_4071"/>
</filter>
<filter id="filter4_f_408_4071" x="27.6795" y="20.4324" width="6.9476" height="3.79917" filterUnits="userSpaceOnUse" color-interpolation-filters="sRGB">
<feFlood flood-opacity="0" result="BackgroundImageFix"/>
<feBlend mode="normal" in="SourceGraphic" in2="BackgroundImageFix" result="shape"/>
<feGaussianBlur stdDeviation="0.402917" result="effect1_foregroundBlur_408_4071"/>
</filter>
<filter id="filter5_f_408_4071" x="27.6151" y="24.3231" width="7.84799" height="3.79917" filterUnits="userSpaceOnUse" color-interpolation-filters="sRGB">
<feFlood flood-opacity="0" result="BackgroundImageFix"/>
<feBlend mode="normal" in="SourceGraphic" in2="BackgroundImageFix" result="shape"/>
<feGaussianBlur stdDeviation="0.402917" result="effect1_foregroundBlur_408_4071"/>
</filter>
<filter id="filter6_f_408_4071" x="24.451" y="13.116" width="4.10288" height="8.56479" filterUnits="userSpaceOnUse" color-interpolation-filters="sRGB">
<feFlood flood-opacity="0" result="BackgroundImageFix"/>
<feBlend mode="normal" in="SourceGraphic" in2="BackgroundImageFix" result="shape"/>
<feGaussianBlur stdDeviation="0.402917" result="effect1_foregroundBlur_408_4071"/>
</filter>
<linearGradient id="paint0_linear_408_4071" x1="28.8283" y1="16.9887" x2="20.0778" y2="35.4131" gradientUnits="userSpaceOnUse">
<stop stop-color="#FFCA44"/>
<stop offset="1" stop-color="#F8A528"/>
</linearGradient>
<radialGradient id="paint1_radial_408_4071" cx="0" cy="0" r="1" gradientUnits="userSpaceOnUse" gradientTransform="translate(29.8607 15.4287) rotate(141.116) scale(4.36143 12.8725)">
<stop stop-color="#FFE34C"/>
<stop offset="1" stop-color="#FFE34C" stop-opacity="0"/>
</radialGradient>
<radialGradient id="paint2_radial_408_4071" cx="0" cy="0" r="1" gradientUnits="userSpaceOnUse" gradientTransform="translate(21.9202 24.9331) rotate(125.191) scale(6.46105 4.68049)">
<stop stop-color="#FFCA2E"/>
<stop offset="1" stop-color="#FFCA2E" stop-opacity="0"/>
</radialGradient>
<radialGradient id="paint3_radial_408_4071" cx="0" cy="0" r="1" gradientUnits="userSpaceOnUse" gradientTransform="translate(28.9301 26.9818) rotate(146.743) scale(14.0789 24.6385)">
<stop offset="0.681" stop-color="#E18E3F" stop-opacity="0"/>
<stop offset="1" stop-color="#E18E3F"/>
</radialGradient>
<linearGradient id="paint4_linear_408_4071" x1="24.4258" y1="33.4435" x2="24.4258" y2="37.8791" gradientUnits="userSpaceOnUse">
<stop stop-color="#D8796F" stop-opacity="0"/>
<stop offset="1" stop-color="#D8796F"/>
</linearGradient>
<linearGradient id="paint5_linear_408_4071" x1="29.5629" y1="21.7871" x2="29.5629" y2="33.3419" gradientUnits="userSpaceOnUse">
<stop stop-color="#D1730B"/>
<stop offset="1" stop-color="#E27D47"/>
</linearGradient>
<linearGradient id="paint6_linear_408_4071" x1="34.6572" y1="23.0773" x2="26.7929" y2="23.0773" gradientUnits="userSpaceOnUse">
<stop stop-color="#FFDB44"/>
<stop offset="1" stop-color="#F9A928"/>
</linearGradient>
<radialGradient id="paint7_radial_408_4071" cx="0" cy="0" r="1" gradientUnits="userSpaceOnUse" gradientTransform="translate(28.072 25.3208) rotate(-142.633) scale(2.01835 1.35102)">
<stop stop-color="#D98320"/>
<stop offset="1" stop-color="#D98320" stop-opacity="0"/>
</radialGradient>
<linearGradient id="paint8_linear_408_4071" x1="33.7217" y1="34.5613" x2="26.6913" y2="34.5613" gradientUnits="userSpaceOnUse">
<stop stop-color="#FFDB44"/>
<stop offset="1" stop-color="#F9A928"/>
</linearGradient>
<radialGradient id="paint9_radial_408_4071" cx="0" cy="0" r="1" gradientUnits="userSpaceOnUse" gradientTransform="translate(28.2521 37.024) scale(6.35954 2.41932)">
<stop stop-color="#F29545"/>
<stop offset="1" stop-color="#F29545" stop-opacity="0"/>
</radialGradient>
<radialGradient id="paint10_radial_408_4071" cx="0" cy="0" r="1" gradientUnits="userSpaceOnUse" gradientTransform="translate(27.9469 32.9631) scale(6.44948 1.73127)">
<stop stop-color="#DA810B"/>
<stop offset="1" stop-color="#FFB610" stop-opacity="0"/>
</radialGradient>
<linearGradient id="paint11_linear_408_4071" x1="30.5454" y1="37.5318" x2="30.5454" y2="35.9387" gradientUnits="userSpaceOnUse">
<stop stop-color="#DC7C6A"/>
<stop offset="1" stop-color="#DC7C6A" stop-opacity="0"/>
</linearGradient>
<radialGradient id="paint12_radial_408_4071" cx="0" cy="0" r="1" gradientUnits="userSpaceOnUse" gradientTransform="translate(25.6732 34.5613) scale(4.87238 7.32409)">
<stop stop-color="#E38811"/>
<stop offset="1" stop-color="#E38811" stop-opacity="0"/>
</radialGradient>
<linearGradient id="paint13_linear_408_4071" x1="33.5783" y1="33.9138" x2="28.5444" y2="33.9138" gradientUnits="userSpaceOnUse">
<stop stop-color="#FFF166"/>
<stop offset="1" stop-color="#FFF166" stop-opacity="0"/>
</linearGradient>
<linearGradient id="paint14_linear_408_4071" x1="34.7525" y1="30.97" x2="26.6925" y2="30.97" gradientUnits="userSpaceOnUse">
<stop stop-color="#FFDB44"/>
<stop offset="1" stop-color="#F9A928"/>
</linearGradient>
<radialGradient id="paint15_radial_408_4071" cx="0" cy="0" r="1" gradientUnits="userSpaceOnUse" gradientTransform="translate(28.482 33.563) scale(7.29145 2.54754)">
<stop stop-color="#F29545"/>
<stop offset="1" stop-color="#F29545" stop-opacity="0"/>
</radialGradient>
<radialGradient id="paint16_radial_408_4071" cx="0" cy="0" r="1" gradientUnits="userSpaceOnUse" gradientTransform="translate(28.1316 29.2874) scale(7.39457 1.82303)">
<stop stop-color="#DA810B"/>
<stop offset="1" stop-color="#FFB610" stop-opacity="0"/>
</radialGradient>
<linearGradient id="paint17_linear_408_4071" x1="34.355" y1="30.5486" x2="28.0524" y2="30.5486" gradientUnits="userSpaceOnUse">
<stop stop-color="#FFF166"/>
<stop offset="1" stop-color="#FFF166" stop-opacity="0"/>
</linearGradient>
<linearGradient id="paint18_linear_408_4071" x1="35.4902" y1="27.0424" x2="26.6963" y2="27.0424" gradientUnits="userSpaceOnUse">
<stop stop-color="#FFDB44"/>
<stop offset="1" stop-color="#F9A928"/>
</linearGradient>
<radialGradient id="paint19_radial_408_4071" cx="0" cy="0" r="1" gradientUnits="userSpaceOnUse" gradientTransform="translate(28.5146 28.965) scale(4.78319 2.1291)">
<stop stop-color="#F29545"/>
<stop offset="1" stop-color="#F29545" stop-opacity="0"/>
</radialGradient>
<radialGradient id="paint20_radial_408_4071" cx="0" cy="0" r="1" gradientUnits="userSpaceOnUse" gradientTransform="translate(22.9904 15.4279) rotate(90) scale(5.53055 2.05342)">
<stop stop-color="#F3A52A"/>
<stop offset="1" stop-color="#F3A52A" stop-opacity="0"/>
</radialGradient>
<radialGradient id="paint21_radial_408_4071" cx="0" cy="0" r="1" gradientUnits="userSpaceOnUse" gradientTransform="translate(21.3756 19.0696) rotate(42.9975) scale(2.77015 4.1917)">
<stop stop-color="#CDA25E"/>
<stop offset="1" stop-color="#CDA25E" stop-opacity="0"/>
</radialGradient>
<linearGradient id="paint22_linear_408_4071" x1="33.5436" y1="21.8383" x2="27.7923" y2="21.8383" gradientUnits="userSpaceOnUse">
<stop stop-color="#FFF166"/>
<stop offset="1" stop-color="#FFF166" stop-opacity="0"/>
</linearGradient>
<linearGradient id="paint23_linear_408_4071" x1="34.3331" y1="25.7289" x2="27.6105" y2="25.7289" gradientUnits="userSpaceOnUse">
<stop stop-color="#FFF166"/>
<stop offset="1" stop-color="#FFF166" stop-opacity="0"/>
</linearGradient>
<linearGradient id="paint24_linear_408_4071" x1="27.6194" y1="15.8288" x2="24.9334" y2="15.8288" gradientUnits="userSpaceOnUse">
<stop stop-color="#FFF166"/>
<stop offset="1" stop-color="#FFF166" stop-opacity="0"/>
</linearGradient>
</defs>
</svg>
