<svg width="321" height="120" viewBox="0 0 321 120" fill="none" xmlns="http://www.w3.org/2000/svg">
<rect y="-1" width="321" height="120" fill="#29476E"/>
<path d="M69.5469 43V75H63.7031L49.7813 54.8594H49.5469V75H42.7812V43H48.7188L62.5313 63.125H62.8125V43H69.5469ZM81.8555 75.4531C80.3242 75.4531 78.9596 75.1875 77.7617 74.6562C76.5638 74.1146 75.6159 73.3177 74.918 72.2656C74.2305 71.2031 73.8867 69.8802 73.8867 68.2969C73.8867 66.9635 74.1315 65.8437 74.6211 64.9375C75.1107 64.0313 75.7773 63.3021 76.6211 62.75C77.4648 62.1979 78.4232 61.7812 79.4961 61.5C80.5794 61.2187 81.7148 61.0208 82.9023 60.9062C84.2982 60.7604 85.4232 60.625 86.2773 60.5C87.1315 60.3646 87.7513 60.1667 88.1367 59.9062C88.5221 59.6458 88.7148 59.2604 88.7148 58.75V58.6562C88.7148 57.6667 88.4023 56.901 87.7773 56.3594C87.1628 55.8177 86.2878 55.5469 85.1523 55.5469C83.9544 55.5469 83.0013 55.8125 82.293 56.3437C81.5846 56.8646 81.1159 57.5208 80.8867 58.3125L74.7305 57.8125C75.043 56.3542 75.6576 55.0937 76.5742 54.0312C77.4909 52.9583 78.6732 52.1354 80.1211 51.5625C81.5794 50.9792 83.2669 50.6875 85.1836 50.6875C86.5169 50.6875 87.793 50.8437 89.0117 51.1562C90.2409 51.4687 91.3294 51.9531 92.2773 52.6094C93.2357 53.2656 93.9909 54.1094 94.543 55.1406C95.0951 56.1615 95.3711 57.3854 95.3711 58.8125V75H89.0586V71.6719H88.8711C88.4857 72.4219 87.9701 73.0833 87.3242 73.6562C86.6784 74.2187 85.9023 74.6615 84.9961 74.9844C84.0898 75.2969 83.043 75.4531 81.8555 75.4531ZM83.7617 70.8594C84.7409 70.8594 85.6055 70.6667 86.3555 70.2812C87.1055 69.8854 87.694 69.3542 88.1211 68.6875C88.5482 68.0208 88.7617 67.2656 88.7617 66.4219V63.875C88.5534 64.0104 88.2669 64.1354 87.9023 64.25C87.5482 64.3542 87.1471 64.4531 86.6992 64.5469C86.2513 64.6302 85.8034 64.7083 85.3555 64.7812C84.9076 64.8437 84.5013 64.901 84.1367 64.9531C83.3555 65.0677 82.6732 65.25 82.0898 65.5C81.5065 65.75 81.0534 66.0885 80.7305 66.5156C80.4076 66.9323 80.2461 67.4531 80.2461 68.0781C80.2461 68.9844 80.5742 69.6771 81.2305 70.1562C81.8971 70.625 82.7409 70.8594 83.7617 70.8594ZM100.535 75V51H106.988V55.1875H107.238C107.676 53.6979 108.41 52.5729 109.441 51.8125C110.473 51.0417 111.66 50.6562 113.004 50.6562C113.337 50.6562 113.697 50.6771 114.082 50.7187C114.467 50.7604 114.806 50.8177 115.098 50.8906V56.7969C114.785 56.7031 114.353 56.6198 113.801 56.5469C113.249 56.474 112.743 56.4375 112.285 56.4375C111.306 56.4375 110.431 56.651 109.66 57.0781C108.9 57.4948 108.296 58.0781 107.848 58.8281C107.41 59.5781 107.191 60.4427 107.191 61.4219V75H100.535ZM133.93 64.7812V51H140.586V75H134.195V70.6406H133.945C133.404 72.0469 132.503 73.1771 131.242 74.0312C129.992 74.8854 128.466 75.3125 126.664 75.3125C125.06 75.3125 123.648 74.9479 122.43 74.2188C121.211 73.4896 120.258 72.4531 119.57 71.1094C118.893 69.7656 118.549 68.1562 118.539 66.2812V51H125.195V65.0937C125.206 66.5104 125.586 67.6302 126.336 68.4531C127.086 69.276 128.091 69.6875 129.352 69.6875C130.154 69.6875 130.904 69.5052 131.602 69.1406C132.299 68.7656 132.862 68.2135 133.289 67.4844C133.727 66.7552 133.94 65.8542 133.93 64.7812ZM152.566 61.125V75H145.91V43H152.379V55.2344H152.66C153.202 53.8177 154.077 52.7083 155.285 51.9062C156.493 51.0937 158.009 50.6875 159.832 50.6875C161.499 50.6875 162.952 51.0521 164.191 51.7812C165.441 52.5 166.41 53.5365 167.098 54.8906C167.796 56.2344 168.139 57.8437 168.129 59.7187V75H161.473V60.9062C161.483 59.4271 161.108 58.276 160.348 57.4531C159.598 56.6302 158.546 56.2187 157.191 56.2187C156.285 56.2187 155.483 56.4115 154.785 56.7969C154.098 57.1823 153.556 57.7448 153.16 58.4844C152.775 59.2135 152.577 60.0938 152.566 61.125ZM184.211 75.4688C181.784 75.4688 179.685 74.9531 177.914 73.9219C176.154 72.8802 174.794 71.4323 173.836 69.5781C172.878 67.7135 172.398 65.5521 172.398 63.0937C172.398 60.6146 172.878 58.4479 173.836 56.5937C174.794 54.7292 176.154 53.2812 177.914 52.25C179.685 51.2083 181.784 50.6875 184.211 50.6875C186.638 50.6875 188.732 51.2083 190.492 52.25C192.263 53.2812 193.628 54.7292 194.586 56.5937C195.544 58.4479 196.023 60.6146 196.023 63.0937C196.023 65.5521 195.544 67.7135 194.586 69.5781C193.628 71.4323 192.263 72.8802 190.492 73.9219C188.732 74.9531 186.638 75.4688 184.211 75.4688ZM184.242 70.3125C185.346 70.3125 186.268 70 187.008 69.375C187.747 68.7396 188.305 67.875 188.68 66.7812C189.065 65.6875 189.258 64.4427 189.258 63.0469C189.258 61.651 189.065 60.4063 188.68 59.3125C188.305 58.2187 187.747 57.3542 187.008 56.7187C186.268 56.0833 185.346 55.7656 184.242 55.7656C183.128 55.7656 182.19 56.0833 181.43 56.7187C180.68 57.3542 180.112 58.2187 179.727 59.3125C179.352 60.4063 179.164 61.651 179.164 63.0469C179.164 64.4427 179.352 65.6875 179.727 66.7812C180.112 67.875 180.68 68.7396 181.43 69.375C182.19 70 183.128 70.3125 184.242 70.3125ZM209.195 75.3906C207.372 75.3906 205.721 74.9219 204.242 73.9844C202.773 73.0365 201.607 71.6458 200.742 69.8125C199.888 67.9687 199.461 65.7083 199.461 63.0312C199.461 60.2812 199.904 57.9948 200.789 56.1719C201.674 54.3385 202.852 52.9687 204.32 52.0625C205.799 51.1458 207.419 50.6875 209.18 50.6875C210.523 50.6875 211.643 50.9167 212.539 51.375C213.445 51.8229 214.174 52.3854 214.727 53.0625C215.289 53.7292 215.716 54.3854 216.008 55.0312H216.211V43H222.852V75H216.289V71.1562H216.008C215.695 71.8229 215.253 72.4844 214.68 73.1406C214.117 73.7865 213.383 74.3229 212.477 74.75C211.581 75.1771 210.487 75.3906 209.195 75.3906ZM211.305 70.0937C212.378 70.0937 213.284 69.8021 214.023 69.2187C214.773 68.625 215.346 67.7969 215.742 66.7344C216.148 65.6719 216.352 64.4271 216.352 63C216.352 61.5729 216.154 60.3333 215.758 59.2812C215.362 58.2292 214.789 57.4167 214.039 56.8437C213.289 56.2708 212.378 55.9844 211.305 55.9844C210.211 55.9844 209.289 56.2812 208.539 56.875C207.789 57.4687 207.221 58.2917 206.836 59.3437C206.451 60.3958 206.258 61.6146 206.258 63C206.258 64.3958 206.451 65.6302 206.836 66.7031C207.232 67.7656 207.799 68.599 208.539 69.2031C209.289 69.7969 210.211 70.0937 211.305 70.0937ZM239.168 75.4688C236.741 75.4688 234.642 74.9531 232.871 73.9219C231.111 72.8802 229.751 71.4323 228.793 69.5781C227.835 67.7135 227.355 65.5521 227.355 63.0937C227.355 60.6146 227.835 58.4479 228.793 56.5937C229.751 54.7292 231.111 53.2812 232.871 52.25C234.642 51.2083 236.741 50.6875 239.168 50.6875C241.595 50.6875 243.689 51.2083 245.449 52.25C247.22 53.2812 248.585 54.7292 249.543 56.5937C250.501 58.4479 250.98 60.6146 250.98 63.0937C250.98 65.5521 250.501 67.7135 249.543 69.5781C248.585 71.4323 247.22 72.8802 245.449 73.9219C243.689 74.9531 241.595 75.4688 239.168 75.4688ZM239.199 70.3125C240.303 70.3125 241.225 70 241.965 69.375C242.704 68.7396 243.262 67.875 243.637 66.7812C244.022 65.6875 244.215 64.4427 244.215 63.0469C244.215 61.651 244.022 60.4063 243.637 59.3125C243.262 58.2187 242.704 57.3542 241.965 56.7187C241.225 56.0833 240.303 55.7656 239.199 55.7656C238.085 55.7656 237.147 56.0833 236.387 56.7187C235.637 57.3542 235.069 58.2187 234.684 59.3125C234.309 60.4063 234.121 61.651 234.121 63.0469C234.121 64.4427 234.309 65.6875 234.684 66.7812C235.069 67.875 235.637 68.7396 236.387 69.375C237.147 70 238.085 70.3125 239.199 70.3125ZM266.152 75.4688C263.725 75.4688 261.626 74.9531 259.855 73.9219C258.095 72.8802 256.736 71.4323 255.777 69.5781C254.819 67.7135 254.34 65.5521 254.34 63.0937C254.34 60.6146 254.819 58.4479 255.777 56.5937C256.736 54.7292 258.095 53.2812 259.855 52.25C261.626 51.2083 263.725 50.6875 266.152 50.6875C268.579 50.6875 270.673 51.2083 272.434 52.25C274.204 53.2812 275.569 54.7292 276.527 56.5937C277.486 58.4479 277.965 60.6146 277.965 63.0937C277.965 65.5521 277.486 67.7135 276.527 69.5781C275.569 71.4323 274.204 72.8802 272.434 73.9219C270.673 74.9531 268.579 75.4688 266.152 75.4688ZM266.184 70.3125C267.288 70.3125 268.21 70 268.949 69.375C269.689 68.7396 270.246 67.875 270.621 66.7812C271.007 65.6875 271.199 64.4427 271.199 63.0469C271.199 61.651 271.007 60.4063 270.621 59.3125C270.246 58.2187 269.689 57.3542 268.949 56.7187C268.21 56.0833 267.288 55.7656 266.184 55.7656C265.069 55.7656 264.132 56.0833 263.371 56.7187C262.621 57.3542 262.053 58.2187 261.668 59.3125C261.293 60.4063 261.105 61.651 261.105 63.0469C261.105 64.4427 261.293 65.6875 261.668 66.7812C262.053 67.875 262.621 68.7396 263.371 69.375C264.132 70 265.069 70.3125 266.184 70.3125Z" fill="white"/>
</svg>
