<svg width="28" height="28" viewBox="0 0 28 28" fill="none" xmlns="http://www.w3.org/2000/svg">
<path d="M14.0001 13.9993C12.1667 13.9993 10.5973 13.3466 9.29175 12.041C7.98619 10.7355 7.33341 9.16602 7.33341 7.33268C7.33341 5.49935 7.98619 3.9299 9.29175 2.62435C10.5973 1.31879 12.1667 0.666016 14.0001 0.666016C15.8334 0.666016 17.4029 1.31879 18.7084 2.62435C20.014 3.9299 20.6667 5.49935 20.6667 7.33268C20.6667 9.16602 20.014 10.7355 18.7084 12.041C17.4029 13.3466 15.8334 13.9993 14.0001 13.9993ZM0.666748 27.3327V22.666C0.666748 21.7216 0.910082 20.8532 1.39675 20.061C1.88341 19.2688 2.52897 18.6649 3.33341 18.2493C5.05564 17.3882 6.80564 16.7421 8.58341 16.311C10.3612 15.8799 12.1667 15.6649 14.0001 15.666C15.8334 15.666 17.639 15.8816 19.4167 16.3127C21.1945 16.7438 22.9445 17.3893 24.6667 18.2493C25.4723 18.666 26.1184 19.2705 26.6051 20.0627C27.0917 20.8549 27.3345 21.7227 27.3334 22.666V27.3327H0.666748Z" fill="#11263C"/>
</svg>
