<svg width="20" height="19" viewBox="0 0 20 19" fill="none" xmlns="http://www.w3.org/2000/svg">
<g filter="url(#filter0_i_367_21529)">
<path d="M8.89381 0.87076C9.41169 -0.190016 10.9234 -0.190019 11.4413 0.870758L13.2907 4.65891C13.4957 5.07898 13.8947 5.37092 14.3572 5.43926L18.5207 6.05458C19.678 6.22561 20.1416 7.64582 19.3081 8.46668L16.2778 11.4509C15.9479 11.7758 15.7975 12.2413 15.8749 12.6979L16.587 16.896C16.7838 18.0561 15.5631 18.937 14.5241 18.3846L10.833 16.4219C10.4169 16.2007 9.91815 16.2007 9.5021 16.4219L5.81096 18.3846C4.77202 18.937 3.55127 18.0561 3.74806 16.896L4.4602 12.6979C4.53764 12.2413 4.38721 11.7758 4.0573 11.4509L1.02701 8.46668C0.193476 7.64582 0.657048 6.22561 1.81435 6.05458L5.97793 5.43926C6.44036 5.37092 6.83936 5.07898 7.04444 4.65891L8.89381 0.87076Z" fill="url(#paint0_linear_367_21529)"/>
</g>
<defs>
<filter id="filter0_i_367_21529" x="0.602539" y="-1.3432" width="19.1299" height="19.8959" filterUnits="userSpaceOnUse" color-interpolation-filters="sRGB">
<feFlood flood-opacity="0" result="BackgroundImageFix"/>
<feBlend mode="normal" in="SourceGraphic" in2="BackgroundImageFix" result="shape"/>
<feColorMatrix in="SourceAlpha" type="matrix" values="0 0 0 0 0 0 0 0 0 0 0 0 0 0 0 0 0 0 127 0" result="hardAlpha"/>
<feOffset dy="-1.41742"/>
<feGaussianBlur stdDeviation="1.41742"/>
<feComposite in2="hardAlpha" operator="arithmetic" k2="-1" k3="1"/>
<feColorMatrix type="matrix" values="0 0 0 0 0.745833 0 0 0 0 0.372544 0 0 0 0 0.0279688 0 0 0 0.57 0"/>
<feBlend mode="normal" in2="shape" result="effect1_innerShadow_367_21529"/>
</filter>
<linearGradient id="paint0_linear_367_21529" x1="5.71643" y1="0.65389" x2="10.677" y2="18.2735" gradientUnits="userSpaceOnUse">
<stop offset="0.0001" stop-color="#FFED8C"/>
<stop offset="1" stop-color="#FF9417"/>
</linearGradient>
</defs>
</svg>
